{
  "source": "C:\\Users\\Peter\\Desktop\\stuff\\MIUN\\quantitative_research\\video_compression\\videos\\BVI-HD\\BVI-HD_CDVL_videos\\ORIG\\Rowing_1920x1080_30fps.mp4",
  "output": "C:\\Users\\Peter\\Desktop\\stuff\\MIUN\\quantitative_research\\video_compression\\compressed_videos\\BVI-HD\\vp9\\8\\Rowing_1920x1080_30fps_vp9.webm",
  "codec": "vp9",
  "ok": "Input #0, mov,mp4,m4a,3gp,3g2,mj2, from 'C:\\Users\\Peter\\Desktop\\stuff\\MIUN\\quantitative_research\\video_compression\\videos\\BVI-HD\\BVI-HD_CDVL_videos\\ORIG\\Rowing_1920x1080_30fps.mp4':\n  Metadata:\n    major_brand     : isom\n    minor_version   : 512\n    compatible_brands: isomiso2avc1mp41\n    encoder         : Lavf54.28.101\n  Duration: 00:00:05.00, start: 0.000000, bitrate: 259220 kb/s\n  Stream #0:0[0x1](und): Video: h264 (High 4:4:4 Predictive) (avc1 / 0x31637661), yuv420p(progressive), 1920x1080, 259216 kb/s, 30 fps, 30 tbr, 30 tbn (default)\n    Metadata:\n      handler_name    : VideoHandler\n      vendor_id       : [0][0][0][0]\n[out#0/webm @ 000002688f589700] Codec AVOption b:a (set bitrate (in bits/s)) has not been used for any stream. The most likely reason is either wrong type (e.g. a video option with no video streams) or that it is a private option of some decoder which was not actually used for any stream.\nStream mapping:\n  Stream #0:0 -> #0:0 (h264 (native) -> vp9 (libvpx-vp9))\nPress [q] to stop, [?] for help\n[libvpx-vp9 @ 0000026890090440] v1.15.2-100-g40561f514\nOutput #0, webm, to 'C:\\Users\\Peter\\Desktop\\stuff\\MIUN\\quantitative_research\\video_compression\\compressed_videos\\BVI-HD\\vp9\\8\\Rowing_1920x1080_30fps_vp9.webm':\n  Metadata:\n    major_brand     : isom\n    minor_version   : 512\n    compatible_brands: isomiso2avc1mp41\n    encoder         : Lavf62.3.100\n  Stream #0:0(und): Video: vp9, yuv420p(tv, progressive), 1920x1080, q=2-31, 8000 kb/s, 30 fps, 1k tbn (default)\n    Metadata:\n      encoder         : Lavc62.11.100 libvpx-vp9\n      handler_name    : VideoHandler\n      vendor_id       : [0][0][0][0]\n    Side data:\n      cpb: bitrate max/min/avg: 0/0/0 buffer size: 8000000 vbv_delay: N/A\nframe=    0 fps=0.0 q=0.0 size=       0KiB time=N/A bitrate=N/A speed=N/A elapsed=0:00:00.53    \nframe=    2 fps=1.7 q=23.0 size=       1KiB time=00:00:00.06 bitrate=  76.1kbits/s speed=0.058x elapsed=0:00:01.14    \nframe=    4 fps=2.4 q=50.0 size=       1KiB time=00:00:00.13 bitrate=  38.0kbits/s speed=0.0793x elapsed=0:00:01.68    \nframe=    7 fps=3.2 q=55.0 size=       1KiB time=00:00:00.23 bitrate=  21.7kbits/s speed=0.106x elapsed=0:00:02.20    \nframe=   10 fps=3.7 q=55.0 size=       1KiB time=00:00:00.33 bitrate=  15.2kbits/s speed=0.122x elapsed=0:00:02.73    \nframe=   12 fps=3.7 q=55.0 size=       1KiB time=00:00:00.40 bitrate=  12.7kbits/s speed=0.123x elapsed=0:00:03.26    \nframe=   14 fps=3.7 q=55.0 size=       1KiB time=00:00:00.46 bitrate=  10.9kbits/s speed=0.122x elapsed=0:00:03.81    \nframe=   17 fps=3.9 q=55.0 size=       1KiB time=00:00:00.56 bitrate=   9.0kbits/s speed=0.131x elapsed=0:00:04.33    \nframe=   19 fps=3.9 q=56.0 size=       1KiB time=00:00:00.63 bitrate=   8.0kbits/s speed=0.13x elapsed=0:00:04.85    \nframe=   21 fps=3.9 q=31.0 size=       1KiB time=00:00:00.70 bitrate=   7.2kbits/s speed=0.13x elapsed=0:00:05.38    \nframe=   23 fps=3.9 q=56.0 size=       1KiB time=00:00:00.76 bitrate=   6.6kbits/s speed=0.13x elapsed=0:00:05.89    \nframe=   26 fps=4.0 q=56.0 size=       1KiB time=00:00:00.86 bitrate=   5.9kbits/s speed=0.135x elapsed=0:00:06.42    \nframe=   28 fps=4.0 q=57.0 size=       1KiB time=00:00:00.93 bitrate=   5.4kbits/s speed=0.134x elapsed=0:00:06.97    \nframe=   30 fps=4.0 q=57.0 size=       1KiB time=00:00:01.00 bitrate=   5.1kbits/s speed=0.133x elapsed=0:00:07.49    \nframe=   32 fps=4.0 q=57.0 size=       1KiB time=00:00:01.06 bitrate=   4.8kbits/s speed=0.133x elapsed=0:00:08.03    \nframe=   34 fps=4.0 q=57.0 size=       1KiB time=00:00:01.13 bitrate=   4.5kbits/s speed=0.132x elapsed=0:00:08.55    \nframe=   36 fps=4.0 q=57.0 size=       1KiB time=00:00:01.20 bitrate=   4.2kbits/s speed=0.132x elapsed=0:00:09.07    \nframe=   38 fps=4.0 q=58.0 size=       1KiB time=00:00:01.26 bitrate=   4.0kbits/s speed=0.132x elapsed=0:00:09.60    \nframe=   40 fps=3.9 q=58.0 size=       1KiB time=00:00:01.33 bitrate=   3.8kbits/s speed=0.131x elapsed=0:00:10.14    \nframe=   42 fps=3.9 q=56.0 size=       1KiB time=00:00:01.40 bitrate=   3.6kbits/s speed=0.131x elapsed=0:00:10.71    \nframe=   43 fps=3.8 q=56.0 size=       1KiB time=00:00:01.43 bitrate=   3.5kbits/s speed=0.127x elapsed=0:00:11.28    \nframe=   44 fps=3.7 q=56.0 size=       1KiB time=00:00:01.46 bitrate=   3.5kbits/s speed=0.124x elapsed=0:00:11.86    \nframe=   45 fps=3.6 q=56.0 size=       1KiB time=00:00:01.50 bitrate=   3.4kbits/s speed=0.12x elapsed=0:00:12.48    \nframe=   46 fps=3.5 q=56.0 size=       1KiB time=00:00:01.53 bitrate=   3.3kbits/s speed=0.118x elapsed=0:00:13.04    \nframe=   47 fps=3.5 q=42.0 size=       1KiB time=00:00:01.56 bitrate=   3.2kbits/s speed=0.115x elapsed=0:00:13.59    \nframe=   49 fps=3.5 q=56.0 size=       1KiB time=00:00:01.63 bitrate=   3.1kbits/s speed=0.116x elapsed=0:00:14.11    \nframe=   51 fps=3.5 q=55.0 size=       1KiB time=00:00:01.70 bitrate=   3.0kbits/s speed=0.116x elapsed=0:00:14.63    \nframe=   52 fps=3.4 q=55.0 size=       1KiB time=00:00:01.73 bitrate=   2.9kbits/s speed=0.114x elapsed=0:00:15.17    \nframe=   54 fps=3.4 q=55.0 size=       1KiB time=00:00:01.80 bitrate=   2.8kbits/s speed=0.115x elapsed=0:00:15.69    \nframe=   55 fps=3.4 q=55.0 size=       1KiB time=00:00:01.83 bitrate=   2.8kbits/s speed=0.113x elapsed=0:00:16.23    \nframe=   57 fps=3.4 q=55.0 size=       1KiB time=00:00:01.90 bitrate=   2.7kbits/s speed=0.113x elapsed=0:00:16.76    \nframe=   58 fps=3.3 q=55.0 size=       1KiB time=00:00:01.93 bitrate=   2.6kbits/s speed=0.112x elapsed=0:00:17.31    \nframe=   59 fps=3.3 q=41.0 size=       1KiB time=00:00:01.96 bitrate=   2.6kbits/s speed=0.11x elapsed=0:00:17.83    \nframe=   61 fps=3.3 q=55.0 size=       1KiB time=00:00:02.03 bitrate=   2.5kbits/s speed=0.111x elapsed=0:00:18.35    \nframe=   63 fps=3.3 q=55.0 size=       1KiB time=00:00:02.10 bitrate=   2.4kbits/s speed=0.111x elapsed=0:00:18.87    \nframe=   64 fps=3.3 q=55.0 size=       1KiB time=00:00:02.13 bitrate=   2.4kbits/s speed=0.11x elapsed=0:00:19.43    \nframe=   66 fps=3.3 q=55.0 size=       1KiB time=00:00:02.20 bitrate=   2.3kbits/s speed=0.11x elapsed=0:00:19.98    \nframe=   67 fps=3.3 q=54.0 size=       1KiB time=00:00:02.23 bitrate=   2.3kbits/s speed=0.109x elapsed=0:00:20.53    \nframe=   69 fps=3.3 q=54.0 size=       1KiB time=00:00:02.30 bitrate=   2.2kbits/s speed=0.109x elapsed=0:00:21.07    \nframe=   71 fps=3.3 q=40.0 size=       1KiB time=00:00:02.36 bitrate=   2.1kbits/s speed=0.109x elapsed=0:00:21.61    \nframe=   72 fps=3.3 q=54.0 size=       1KiB time=00:00:02.40 bitrate=   2.1kbits/s speed=0.108x elapsed=0:00:22.14    \nframe=   74 fps=3.3 q=54.0 size=       1KiB time=00:00:02.46 bitrate=   2.1kbits/s speed=0.109x elapsed=0:00:22.66    \nframe=   75 fps=3.2 q=54.0 size=       1KiB time=00:00:02.50 bitrate=   2.0kbits/s speed=0.108x elapsed=0:00:23.20    \nframe=   77 fps=3.2 q=30.0 size=       1KiB time=00:00:02.56 bitrate=   2.0kbits/s speed=0.108x elapsed=0:00:23.75    \nframe=   79 fps=3.3 q=57.0 size=       1KiB time=00:00:02.63 bitrate=   1.9kbits/s speed=0.108x elapsed=0:00:24.29    \nframe=   81 fps=3.3 q=56.0 size=       1KiB time=00:00:02.70 bitrate=   1.9kbits/s speed=0.109x elapsed=0:00:24.83    \nframe=   83 fps=3.3 q=56.0 size=       1KiB time=00:00:02.76 bitrate=   1.8kbits/s speed=0.109x elapsed=0:00:25.40    \nframe=   85 fps=3.3 q=56.0 size=       1KiB time=00:00:02.83 bitrate=   1.8kbits/s speed=0.109x elapsed=0:00:25.95    \nframe=   86 fps=3.2 q=56.0 size=       1KiB time=00:00:02.86 bitrate=   1.8kbits/s speed=0.108x elapsed=0:00:26.46    \nframe=   88 fps=3.3 q=51.0 size=       1KiB time=00:00:02.93 bitrate=   1.7kbits/s speed=0.109x elapsed=0:00:26.98    \nframe=   90 fps=3.3 q=52.0 size=       1KiB time=00:00:03.00 bitrate=   1.7kbits/s speed=0.109x elapsed=0:00:27.50    \nframe=   91 fps=3.2 q=52.0 size=       1KiB time=00:00:03.03 bitrate=   1.7kbits/s speed=0.108x elapsed=0:00:28.08    \nframe=   93 fps=3.3 q=39.0 size=       1KiB time=00:00:03.10 bitrate=   1.6kbits/s speed=0.108x elapsed=0:00:28.61    \nframe=   95 fps=3.3 q=52.0 size=       1KiB time=00:00:03.16 bitrate=   1.6kbits/s speed=0.109x elapsed=0:00:29.15    \nframe=   97 fps=3.3 q=52.0 size=       1KiB time=00:00:03.23 bitrate=   1.6kbits/s speed=0.109x elapsed=0:00:29.70    \nframe=   98 fps=3.2 q=52.0 size=       1KiB time=00:00:03.26 bitrate=   1.6kbits/s speed=0.108x elapsed=0:00:30.23    \nframe=  100 fps=3.2 q=52.0 size=       1KiB time=00:00:03.33 bitrate=   1.5kbits/s speed=0.108x elapsed=0:00:30.77    \nframe=  102 fps=3.3 q=52.0 size=       1KiB time=00:00:03.40 bitrate=   1.5kbits/s speed=0.109x elapsed=0:00:31.27    \nframe=  104 fps=3.3 q=52.0 size=       1KiB time=00:00:03.46 bitrate=   1.5kbits/s speed=0.109x elapsed=0:00:31.80    \nframe=  107 fps=3.3 q=52.0 size=       1KiB time=00:00:03.53 bitrate=   1.4kbits/s speed=0.109x elapsed=0:00:32.32    \nframe=  108 fps=3.3 q=51.0 size=       1KiB time=00:00:03.60 bitrate=   1.4kbits/s speed=0.109x elapsed=0:00:32.90    \nframe=  110 fps=3.3 q=51.0 size=       1KiB time=00:00:03.66 bitrate=   1.4kbits/s speed=0.109x elapsed=0:00:33.50    \nframe=  112 fps=3.3 q=50.0 size=       1KiB time=00:00:03.73 bitrate=   1.4kbits/s speed=0.109x elapsed=0:00:34.11    \nframe=  114 fps=3.3 q=50.0 size=       1KiB time=00:00:03.80 bitrate=   1.3kbits/s speed=0.109x elapsed=0:00:34.72    \nframe=  115 fps=3.3 q=50.0 size=       1KiB time=00:00:03.83 bitrate=   1.3kbits/s speed=0.108x elapsed=0:00:35.35    \nframe=  116 fps=3.2 q=50.0 size=       1KiB time=00:00:03.86 bitrate=   1.3kbits/s speed=0.108x elapsed=0:00:35.96    \nframe=  118 fps=3.2 q=49.0 size=       1KiB time=00:00:03.93 bitrate=   1.3kbits/s speed=0.107x elapsed=0:00:36.61    \nframe=  119 fps=3.2 q=49.0 size=       1KiB time=00:00:03.96 bitrate=   1.3kbits/s speed=0.107x elapsed=0:00:37.24    \nframe=  120 fps=3.2 q=49.0 size=       1KiB time=00:00:04.00 bitrate=   1.3kbits/s speed=0.106x elapsed=0:00:37.81    \nframe=  122 fps=3.2 q=50.0 size=       1KiB time=00:00:04.06 bitrate=   1.2kbits/s speed=0.106x elapsed=0:00:38.38    \nframe=  123 fps=3.2 q=37.0 size=       1KiB time=00:00:04.10 bitrate=   1.2kbits/s speed=0.105x elapsed=0:00:38.98    \nframe=  125 fps=3.2 q=50.0 size=       1KiB time=00:00:04.16 bitrate=   1.2kbits/s speed=0.105x elapsed=0:00:39.56    \nframe=  126 fps=3.1 q=49.0 size=       1KiB time=00:00:04.20 bitrate=   1.2kbits/s speed=0.105x elapsed=0:00:40.17    \nframe=  126 fps=3.1 q=49.0 size=       1KiB time=00:00:04.20 bitrate=   1.2kbits/s speed=0.103x elapsed=0:00:40.73    \nframe=  126 fps=3.1 q=49.0 size=       1KiB time=00:00:04.20 bitrate=   1.2kbits/s speed=0.102x elapsed=0:00:41.28    \nframe=  126 fps=3.0 q=49.0 size=       1KiB time=00:00:04.20 bitrate=   1.2kbits/s speed= 0.1x elapsed=0:00:41.83    \nframe=  126 fps=3.0 q=49.0 size=       1KiB time=00:00:04.20 bitrate=   1.2kbits/s speed=0.099x elapsed=0:00:42.44    \nframe=  126 fps=2.9 q=49.0 size=       1KiB time=00:00:04.20 bitrate=   1.2kbits/s speed=0.0975x elapsed=0:00:43.09    \nframe=  126 fps=2.9 q=49.0 size=       1KiB time=00:00:04.20 bitrate=   1.2kbits/s speed=0.0962x elapsed=0:00:43.67    \nframe=  126 fps=2.8 q=49.0 size=       1KiB time=00:00:04.20 bitrate=   1.2kbits/s speed=0.0949x elapsed=0:00:44.23    \nframe=  126 fps=2.8 q=49.0 size=       1KiB time=00:00:04.20 bitrate=   1.2kbits/s speed=0.0938x elapsed=0:00:44.79    \nframe=  126 fps=2.8 q=49.0 size=       1KiB time=00:00:04.20 bitrate=   1.2kbits/s speed=0.0926x elapsed=0:00:45.36    \nframe=  126 fps=2.7 q=49.0 size=       1KiB time=00:00:04.20 bitrate=   1.2kbits/s speed=0.0915x elapsed=0:00:45.92    \n[out#0/webm @ 000002688f589700] video:4116KiB audio:0KiB subtitle:0KiB other streams:0KiB global headers:0KiB muxing overhead: 0.044793%\nframe=  150 fps=3.2 q=50.0 Lsize=    4118KiB time=00:00:05.00 bitrate=6747.0kbits/s speed=0.108x elapsed=0:00:46.34    \n",
  "seconds": 46.66770100593567,
  "probe_out": {}
}